<?xml version="1.0" encoding="utf-8"?>
<!-- Generator: Adobe Illustrator 16.0.0, SVG Export Plug-In . SVG Version: 6.00 Build 0)  -->
<!DOCTYPE svg PUBLIC "-//W3C//DTD SVG 1.1//EN" "http://www.w3.org/Graphics/SVG/1.1/DTD/svg11.dtd">
<svg version="1.1" id="Layer_1" xmlns="http://www.w3.org/2000/svg" xmlns:xlink="http://www.w3.org/1999/xlink" x="0px" y="0px"
	 width="700px" height="700px" viewBox="0 0 700 700" enable-background="new 0 0 700 700" xml:space="preserve">
<path fill="#F7911E" d="M692.93,348.355c0,189.396-153.531,342.935-342.933,342.935C160.607,691.29,7.07,537.752,7.07,348.355
	S160.607,5.422,349.997,5.422C539.396,5.422,692.93,158.959,692.93,348.355"/>
<path fill="#FFFFFF" d="M349.997,40.091c-170.243,0-308.258,138.015-308.258,308.264c0,170.249,138.015,308.264,308.258,308.264
	c170.255,0,308.264-138.016,308.264-308.264C658.261,178.106,520.252,40.091,349.997,40.091z M349.997,621.951
	c-151.097,0-273.59-122.495-273.59-273.596c0-151.103,122.493-273.595,273.59-273.595c151.104,0,273.594,122.493,273.594,273.595
	C623.591,499.456,501.102,621.951,349.997,621.951z"/>
<path d="M350,562.045"/>
<path opacity="0.2" fill="#FFFFFF" enable-background="new    " d="M569.345,84.917
	c-40.509,139.674-156.811,463.987-385.284,563.761c49.175,27.244,105.738,42.777,165.937,42.777
	c189.399,0,342.932-153.539,342.932-342.935C692.931,242.554,644.859,147.823,569.345,84.917z"/>
<g>
	<polygon points="333.929,219.472 333.929,219.474 208.591,219.474 267.203,510.188 333.929,510.188 366.07,510.188 
		432.795,510.188 491.41,219.472 	"/>
	<polygon fill="#FFFFFF" points="223.708,294.443 244.79,399.013 455.213,399.013 476.293,294.443 350.328,294.443 	"/>
	<path fill="#FFFFFF" d="M495.637,208.345h-9.979l-22.339-47H353.174h-1.897H241.131l-22.337,47h-14.428
		c-3.129,0-5.665,2.537-5.665,5.665c0,3.129,2.536,5.665,5.665,5.665h291.27c3.125,0,5.662-2.536,5.662-5.665
		C501.299,210.882,498.762,208.345,495.637,208.345z"/>
	<path fill="#F99F1B" d="M337.76,380.176l15.491-20.093c0,0,0.726-28.318,33.4-37.033l-45.502,57.427
		c0,0,69.223,8.406,60.749-67.104c0,0-58.329-7.504-59.534,56.149c0,0-34.614-6.051-34.127-45.985c0,0,20.327-0.27,34.127,23.103
		l5.324-11.486c0,0-16.699-25.958-48.172-22.054C299.515,313.1,283.79,361.294,337.76,380.176z M391.829,326.017
		c-3.625,31.744-30.199,37.965-30.199,37.965L391.829,326.017z"/>
</g>
</svg>
