<?xml version="1.0" encoding="utf-8"?>
<!-- Generator: Adobe Illustrator 16.0.0, SVG Export Plug-In . SVG Version: 6.00 Build 0)  -->
<!DOCTYPE svg PUBLIC "-//W3C//DTD SVG 1.1//EN" "http://www.w3.org/Graphics/SVG/1.1/DTD/svg11.dtd">
<svg version="1.1" id="Layer_1" xmlns="http://www.w3.org/2000/svg" xmlns:xlink="http://www.w3.org/1999/xlink" x="0px" y="0px"
	 width="500px" height="500px" viewBox="0 0 500 500" enable-background="new 0 0 500 500" xml:space="preserve">
<path fill="#F7911E" d="M423.974,251.273c0,95.613-77.509,173.124-173.123,173.124c-95.61,0-173.121-77.511-173.121-173.124
	c0-95.614,77.51-173.125,173.121-173.125C346.465,78.149,423.974,155.659,423.974,251.273"/>
<path fill="#FFFFFF" d="M249.726,94.651c-85.945,0-155.618,69.675-155.618,155.623c0,85.947,69.673,155.621,155.618,155.621
	c85.949,0,155.622-69.674,155.622-155.621C405.348,164.326,335.675,94.651,249.726,94.651z M249.726,388.393
	c-76.278,0-138.118-61.838-138.118-138.119c0-76.282,61.84-138.12,138.118-138.12c76.284,0,138.119,61.838,138.119,138.12
	C387.845,326.555,326.01,388.393,249.726,388.393z"/>
<path d="M381.982,358.152"/>
<path opacity="0.1" fill="#FFFFFF" d="M360.771,117.281c-20.45,70.513-79.163,234.235-194.503,284.604
	c24.824,13.756,53.379,21.595,83.771,21.595c95.615,0,173.122-77.511,173.122-173.123
	C423.161,196.861,398.895,149.038,360.771,117.281z"/>
<g>
	<g>
		<path fill="#F7911E" d="M308.335,162.077c6.278,1.016,12.345-1.204,17.099-5.31c2.444-2.111-1.108-5.632-3.535-3.535
			c-3.268,2.822-7.866,4.73-12.233,4.024C306.512,156.746,305.159,161.563,308.335,162.077L308.335,162.077z"/>
	</g>
</g>
<g>
	<rect x="191.667" y="320.334" fill="#FFFFFF" width="21.951" height="9.333"/>
	<rect x="191.667" y="329.334" width="21.951" height="5.749"/>
</g>
<polyline points="213.032,329.668 202.057,329.668 191.082,329.668 "/>
<path fill="#AAABAC" d="M261,320.334h64.25V282.75h-65.641c0,0-3.359,31.25,1.391,36.5"/>
<rect x="258.456" y="280" fill="#D5D5D4" width="69.794" height="2.75"/>
<g>
	<rect x="293.024" y="320.959" fill="#FFFFFF" width="21.951" height="9.333"/>
	<rect x="293.024" y="329.959" width="21.951" height="5.749"/>
</g>
<g>
	<path d="M327.242,234.469c0,2.214,1.794,4.008,4.007,4.008h9.352c2.214,0,4.009-1.794,4.009-4.008v-4.468
		c0-2.214-1.795-4.008-4.009-4.008h-9.352c-2.213,0-4.007,1.794-4.007,4.008V234.469z"/>
	<path d="M300.3,232.68c0,2.214,1.796,4.008,4.008,4.008h21.152c2.215,0,4.008-1.794,4.008-4.008v-0.89
		c0-2.214-1.793-4.008-4.008-4.008h-21.152c-2.212,0-4.008,1.794-4.008,4.008V232.68z"/>
	<path fill="#AAABAC" d="M343.482,234.831c0,0.35,0.283,0.633,0.633,0.633l0,0c0.351,0,0.634-0.284,0.634-0.633v-4.781
		c0-0.35-0.283-0.633-0.634-0.633l0,0c-0.35,0-0.633,0.283-0.633,0.633V234.831z"/>
	<rect x="304.663" y="231.038" width="2.044" height="5.537"/>
	<rect x="298.157" y="229.307" fill="#848687" width="2.629" height="5.537"/>
	<rect x="278.458" y="225.993" fill="#848687" width="20.032" height="10.695"/>
	<path fill="#848687" d="M285.711,237.46c0,0.861,0.698,1.559,1.56,1.559h2.408c0.859,0,1.558-0.698,1.558-1.559l0,0
		c0-0.861-0.698-1.559-1.558-1.559h-2.408C286.409,235.901,285.711,236.599,285.711,237.46L285.711,237.46z"/>
</g>
<path fill="none" stroke="#BCBEC0" stroke-width="4" stroke-miterlimit="10" d="M285.726,275"/>
<path fill="none" stroke="#BCBEC0" stroke-width="4" stroke-miterlimit="10" d="M261.753,213.702"/>
<rect x="258.627" y="236.886" fill="#BCBEC0" width="8.996" height="13.208"/>
<rect x="259.545" y="249.386" fill="#BCBEC0" width="7.16" height="13.208"/>
<rect x="260.702" y="260.135" transform="matrix(0.9998 0.0188 -0.0188 0.9998 5.1048 -4.9053)" fill="#BCBEC0" width="4.772" height="17.087"/>
<path fill="#BCBEC0" d="M301.46,220.519h-16.299l-12.705-19.14h-17v19.333v15.011c0,0,10.617,7.178,21.226,0l0.037-8.124h24.741
	V220.519z"/>
<path fill="#C7C8CA" d="M176.333,180.333c0,0-26.667,72,6.667,116.667v23.334h78v-24c0,0-10.667-93.334,0-104L176.333,180.333z"/>
<path fill="#E1E1E1" d="M264.946,197.504c-3.935,0-7.125,1.735-7.125,3.875h14.25C272.071,199.239,268.881,197.504,264.946,197.504z
	"/>
</svg>
